# xmcd CD database file
#
# Track frame offsets:
#	150
#	31365
#	58055
#	82107
#	103552
#	129017
#	151880
#	181009
#
# Disc length: 2693 seconds
#
# Revision: 0
# Processed by: cddbd v1.5.2PL0 Copyright (c) Steve Scherf et al.
# Submitted via: CDex 1.60beta1-cs1
#
DISCID=580a8308
DTITLE=Crotalus -  Terrificus
DYEAR=1900
DGENRE=Rhythmic Soul
TTITLE0=Part -one terrificus part two our fear
TTITLE1=Life of agony
TTITLE2=The prince of darkness
TTITLE3=Atrets of law
TTITLE4=Another way
TTITLE5=Sleeping with the pain
TTITLE6=Blood tears
TTITLE7=Lost soul
EXTD=
EXTT0=
EXTT1=
EXTT2=
EXTT3=
EXTT4=
EXTT5=
EXTT6=
EXTT7=
PLAYORDER=
